<svg xmlns="http://www.w3.org/2000/svg" xmlns:xlink="http://www.w3.org/1999/xlink" version="1.1" x="0px" y="0px" viewBox="0 0 100 100" enable-background="new 0 0 100 100" xml:space="preserve"><g id="icon"><path d="M20,72.5c7.418,0,13.578-5.417,14.774-12.5h3.163c1.033,2.908,3.804,5,7.063,5c4.136,0,7.5-3.364,7.5-7.5  c0-0.863-0.154-1.688-0.423-2.46l17.07-13.656l2.013,4.025C67.434,48.141,65,52.536,65,57.5c0,8.271,6.729,15,15,15s15-6.729,15-15  s-6.729-15-15-15c-1.523,0-2.991,0.232-4.377,0.655l-8.387-16.773C66.813,25.535,65.947,25,65,25h-7.5c-3.224,0-3.224,5,0,5h5.955  l3.405,6.81L48.952,51.137C47.802,50.421,46.451,50,45,50c-0.719,0-1.413,0.108-2.072,0.298L35.572,40H37.5c3.254,0,3.204-5-0.047-5  c-1.618,0-8.198,0-9.871,0c-3.271,0-3.36,5-0.082,5h1.928l-2.876,4.027C24.569,43.059,22.351,42.5,20,42.5c-8.271,0-15,6.729-15,15  S11.729,72.5,20,72.5z M73.44,49.971l4.324,8.647c1.445,2.887,5.912,0.643,4.473-2.236l-4.329-8.658  C78.583,47.58,79.282,47.5,80,47.5c5.514,0,10,4.486,10,10s-4.486,10-10,10s-10-4.486-10-10C70,54.497,71.337,51.805,73.44,49.971z   M45,55c1.379,0,2.5,1.122,2.5,2.5S46.379,60,45,60s-2.5-1.122-2.5-2.5S43.621,55,45,55z M32.5,44.301l6.36,8.905  c-0.385,0.549-0.694,1.152-0.923,1.794h-3.163c-0.527-3.122-2.006-5.923-4.148-8.075L32.5,44.301z M27.657,51.081  c0.943,1.123,1.635,2.458,2.013,3.919h-4.813L27.657,51.081z M20,47.5c1.265,0,2.472,0.246,3.587,0.677l-5.622,7.87  C16.804,57.672,18.01,60,20,60h9.671c-1.115,4.306-5.022,7.5-9.671,7.5c-5.514,0-10-4.486-10-10S14.486,47.5,20,47.5z"/></g></svg>