<svg xmlns="http://www.w3.org/2000/svg" xmlns:xlink="http://www.w3.org/1999/xlink" version="1.1" x="0px" y="0px" viewBox="0 0 100 100" enable-background="new 0 0 100 100" xml:space="preserve"><g id="icon"><path d="M91.768,25.732C91.299,25.263,90.663,25,90,25H10c-0.663,0-1.299,0.263-1.768,0.732l-2.5,2.5C5.263,28.701,5,29.337,5,30  v7.5v10V60c0,1.147,0.781,2.147,1.894,2.425l10,2.5C17.092,64.975,17.295,65,17.5,65h3.277c0.966,2.9,3.702,5,6.923,5  c3.221,0,5.956-2.1,6.923-5H47.5h15h3.277c0.966,2.9,3.702,5,6.923,5c3.221,0,5.956-2.1,6.923-5H82.5h10c1.381,0,2.5-1.119,2.5-2.5  v-15v-10V30c0-0.663-0.264-1.299-0.732-1.768L91.768,25.732z M10,40h5v5h-5V40z M27.7,65c-1.269,0-2.3-1.032-2.3-2.3  c0-1.269,1.032-2.3,2.3-2.3c1.268,0,2.3,1.032,2.3,2.3C30,63.968,28.968,65,27.7,65z M45,60H34.476  c-1.076-2.691-3.705-4.6-6.776-4.6c-3.071,0-5.7,1.909-6.777,4.6h-3.116L10,58.048V50h17.5h10H45V60z M20,45v-5h5v5H20z M30,45v-5h5  v5H30z M45,45h-5v-5h5V45z M52.5,60H50V40h2.5V60z M60,60h-2.5V40H60V60z M72.7,65c-1.269,0-2.3-1.032-2.3-2.3  c0-1.269,1.032-2.3,2.3-2.3c1.268,0,2.3,1.032,2.3,2.3C75,63.968,73.968,65,72.7,65z M80,60h-0.524  c-1.076-2.691-3.705-4.6-6.776-4.6c-3.071,0-5.7,1.909-6.777,4.6H65V50h15V60z M65,45v-5h5v5H65z M80,45h-5v-5h5V45z M90,47.5V60h-5  V40h5V47.5z M90,35h-7.5h-20h-15h-10h-10H10v-3.964L11.036,30h77.929L90,31.035V35z"/></g></svg>