<svg xmlns="http://www.w3.org/2000/svg" xmlns:xlink="http://www.w3.org/1999/xlink" version="1.1" x="0px" y="0px" viewBox="0 0 100 100" enable-background="new 0 0 100 100" xml:space="preserve"><g id="icon"><path d="M17.5,47.5v15c0,1.381,1.119,2.5,2.5,2.5h5.438c1.033,2.908,3.804,5,7.063,5s6.03-2.092,7.063-5h20.875  c1.033,2.908,3.804,5,7.063,5s6.03-2.092,7.063-5H80c1.381,0,2.5-1.119,2.5-2.5v-15c0-1.381-1.119-2.5-2.5-2.5h-8.964L59.268,33.232  C58.799,32.763,58.163,32.5,57.5,32.5h-20c-0.663,0-1.299,0.263-1.768,0.732l-9.583,9.583l-6.94,2.313  C18.188,45.469,17.5,46.424,17.5,47.5z M32.5,65c-1.378,0-2.5-1.122-2.5-2.5s1.122-2.5,2.5-2.5s2.5,1.122,2.5,2.5S33.878,65,32.5,65  z M67.5,65c-1.378,0-2.5-1.122-2.5-2.5s1.122-2.5,2.5-2.5s2.5,1.122,2.5,2.5S68.878,65,67.5,65z M22.5,49.302l5.791-1.93  c0.368-0.123,0.703-0.33,0.977-0.604l9.268-9.268h17.929l11.768,11.768C68.701,49.737,69.337,50,70,50h7.5v10h-2.938  c-1.033-2.908-3.804-5-7.063-5s-6.03,2.092-7.063,5H39.563c-1.033-2.908-3.804-5-7.063-5s-6.03,2.092-7.063,5H22.5V49.302z"/><path d="M50,50h10c0.006,0,0.012,0,0.02,0c1.381,0,2.5-1.119,2.5-2.5c0-0.786-0.363-1.488-0.931-1.946l-4.822-4.821  C56.299,40.263,55.663,40,55,40h-5c-1.381,0-2.5,1.119-2.5,2.5v5C47.5,48.881,48.619,50,50,50z"/><path d="M35,50h7.5c1.381,0,2.5-1.119,2.5-2.5v-5c0-1.381-1.119-2.5-2.5-2.5H40c-0.663,0-1.299,0.263-1.768,0.732l-5,5  c-0.715,0.715-0.929,1.79-0.542,2.724C33.077,49.391,33.989,50,35,50z"/></g></svg>