<svg xmlns="http://www.w3.org/2000/svg" xmlns:xlink="http://www.w3.org/1999/xlink" version="1.1" x="0px" y="0px" viewBox="0 0 100 100" enable-background="new 0 0 100 100" xml:space="preserve"><g id="icon"><circle fill="#000000" cx="50.032" cy="10.587" r="7.745"></circle><path fill="#000000" d="M61.284,32.473l-0.035,21.654c0,1.859,1.507,3.365,3.366,3.365s3.366-1.506,3.366-3.365V30.924   c0-6-4.862-10.864-10.863-10.864H42.863C36.862,20.061,32,24.925,32,30.924l0.164,23.203c0,1.859,1.507,3.365,3.366,3.365   s3.367-1.506,3.367-3.365V32.473c0-0.455,0.368-0.823,0.823-0.823c0.454,0,0.823,0.369,0.823,0.823l-0.165,60.084   c0,2.455,1.989,4.443,4.444,4.443s4.443-1.988,4.443-4.443V57.412c0-0.41,0.333-0.742,0.741-0.742c0.409,0,0.741,0.332,0.741,0.742   v35.145c0,2.455,1.99,4.443,4.444,4.443c2.455,0,4.444-1.988,4.444-4.443V32.473c0-0.455,0.369-0.823,0.823-0.823   C60.916,31.649,61.284,32.018,61.284,32.473z"></path></g></svg>