<svg xmlns="http://www.w3.org/2000/svg" xmlns:xlink="http://www.w3.org/1999/xlink" version="1.1" x="0px" y="0px" viewBox="0 0 100 100" enable-background="new 0 0 100 100" xml:space="preserve"><g id="icon"><path d="M33.618,55.264l-4.406-2.203l-3.739-5.608C28.005,47.21,30,45.095,30,42.5c0-2.757-2.243-5-5-5s-5,2.243-5,5  c0,1.111,0.376,2.128,0.992,2.959l-9.61,4.805c-0.593,0.297-1.044,0.816-1.254,1.445l-2.5,7.5c-1.019,3.06,3.723,4.64,4.744,1.582  l2.172-6.518l4.683-2.342l-1.631,9.785l-4.536,9.071L6.113,75.42c-2.676,1.784,0.084,5.955,2.773,4.16l7.5-5  c0.362-0.241,0.654-0.573,0.85-0.962l3.191-6.382L25,73.333V82.5c0,3.224,5,3.224,5,0v-10c0-0.541-0.176-1.067-0.5-1.5l-6.858-9.145  l1.285-7.709l1.493,2.24c0.241,0.362,0.573,0.654,0.962,0.85l5,2.5C34.265,61.178,36.501,56.707,33.618,55.264z"/><path d="M40.075,71.894l-5,20c-0.781,3.122,4.068,4.344,4.851,1.213l5-20C45.708,69.978,40.857,68.768,40.075,71.894z"/><path d="M51.27,72.19l-2.5,20c-0.4,3.199,4.562,3.817,4.961,0.62l2.5-20C56.631,69.611,51.669,68.99,51.27,72.19z"/><path d="M85.065,73.106l5,20c0.782,3.131,5.631,1.91,4.851-1.213l-5-20C89.133,68.768,84.282,69.978,85.065,73.106z"/><path d="M73.759,72.81l2.5,20c0.399,3.197,5.361,2.579,4.961-0.62l-2.5-20C78.321,68.99,73.359,69.611,73.759,72.81z"/><path d="M62.5,72.5v20c0,3.224,5,3.224,5,0v-20C67.5,69.276,62.5,69.276,62.5,72.5z"/></g></svg>