<svg xmlns="http://www.w3.org/2000/svg" xmlns:xlink="http://www.w3.org/1999/xlink" version="1.1" x="0px" y="0px" viewBox="0 0 100 100" enable-background="new 0 0 100 100" xml:space="preserve"><g id="icon"><path d="M89.268,25.732C88.799,25.263,88.163,25,87.5,25h-75c-0.663,0-1.299,0.263-1.768,0.732l-5,5C5.264,31.201,5,31.837,5,32.5  v30C5,63.881,6.119,65,7.5,65h5.126c0.581,2.849,3.106,5,6.124,5c2.046,0,3.859-0.992,5-2.516c1.141,1.524,2.954,2.516,5,2.516  c3.018,0,5.543-2.151,6.124-5h30.252c0.581,2.849,3.106,5,6.124,5c2.046,0,3.859-0.992,5-2.516c1.141,1.524,2.954,2.516,5,2.516  c3.018,0,5.543-2.151,6.124-5H92.5c1.381,0,2.5-1.119,2.5-2.5v-30c0-0.663-0.264-1.299-0.732-1.768L89.268,25.732z M20,60h-2.5V40  H20V60z M82.5,60H80V40h2.5V60z M90,60h-2.5V37.5c0-1.381-1.119-2.5-2.5-2.5h-7.5c-1.381,0-2.5,1.119-2.5,2.5V60H25V37.5  c0-1.381-1.119-2.5-2.5-2.5H15c-1.381,0-2.5,1.119-2.5,2.5V60H10V33.536L13.535,30h72.93L90,33.536V60z"/><path d="M70,35H30c-1.381,0-2.5,1.119-2.5,2.5v10c0,1.381,1.119,2.5,2.5,2.5h40c1.381,0,2.5-1.119,2.5-2.5v-10  C72.5,36.119,71.381,35,70,35z M37.5,45h-5v-5h5V45z M47.5,45h-5v-5h5V45z M57.5,45h-5v-5h5V45z M67.5,45h-5v-5h5V45z"/></g></svg>