<svg xmlns="http://www.w3.org/2000/svg" xmlns:xlink="http://www.w3.org/1999/xlink" version="1.1" x="0px" y="0px" viewBox="0 0 100 125" enable-background="new 0 0 100 100" xml:space="preserve"><g id="icon"><path d="M17.9,27.5v35c0,1.381,1.119,2.5,2.5,2.5h5.377c0.966,2.9,3.702,5,6.923,5c3.221,0,5.956-2.1,6.923-5h21.154  c0.966,2.9,3.702,5,6.923,5c3.221,0,5.956-2.1,6.923-5H80c1.381,0,2.5-1.119,2.5-2.5v-15c0-0.318-0.061-0.633-0.179-0.929l-5-12.5  C76.941,33.123,76.022,32.5,75,32.5H65v-5c0-1.381-1.119-2.5-2.5-2.5H20.4C19.019,25,17.9,26.119,17.9,27.5z M67.7,65  c-1.269,0-2.3-1.032-2.3-2.3c0-1.269,1.032-2.3,2.3-2.3c1.268,0,2.3,1.032,2.3,2.3C70,63.968,68.968,65,67.7,65z M65,37.5h8.308  l1,2.5H70c-1.381,0-2.5,1.119-2.5,2.5v5c0,1.381,1.119,2.5,2.5,2.5h7.5v10h-3.024c-1.076-2.691-3.705-4.6-6.776-4.6  c-0.954,0-1.864,0.189-2.7,0.524V37.5z M32.7,65c-1.269,0-2.3-1.032-2.3-2.3c0-1.269,1.032-2.3,2.3-2.3c1.268,0,2.3,1.032,2.3,2.3  C35,63.968,33.968,65,32.7,65z M22.9,30H60v30H39.476c-1.076-2.691-3.705-4.6-6.776-4.6c-3.071,0-5.7,1.909-6.777,4.6H22.9V30z"/></g></svg>